Die 2010 DVDRip XviD AC3 HQ Hive-CM8

Thx Hive

CM8 Doing It Right The First Time


Source R2 Pal Pre-Rental
thx NLC

Video: 720x304 @bitrate 2150 2pass
Audio: English AC3 5.1 @448
Sample: yes included

Encode: Source DVD was not the greatest in quality.
added sharpness,chroma,denoise and corrected rgb colours.

 
http://www.imdb.com/title/tt1465478/


General
Complete name : Die.2010.DVDRip.XviD.AC3.HQ.Hive-CM8.avi
Format : AVI
Format/Info : Audio Video Interleave
File size : 1.59 GiB
Duration : 1h 27mn
Overall bit rate : 2 600 Kbps
Writing application : Nandub v1.0rc2
Writing library : Nandub build 1853/release

Video
ID : 0
Format : MPEG-4 Visual
Format profile : Advanced Simple@L5
Format settings, BVOP : Yes
Format settings, QPel : Yes
Format settings, GMC : No warppoints
Format settings, Matrix : Default (H.263)
Muxing mode : Packed bitstream
Codec ID : XVID
Codec ID/Hint : XviD
Duration : 1h 27mn
Bit rate : 2 142 Kbps
Width : 720 pixels
Height : 304 pixels
Display aspect ratio : 2.35:1
Frame rate : 25.000 fps
Color space : YUV
Chroma subsampling : 4:2:0
Bit depth : 8 bits
Scan type : Progressive
Bits/(Pixel*Frame) : 0.391
Stream size : 1.31 GiB (82%)
Writing library : XviD 1.2.1 (UTC 2008-12-04)

Audio
ID : 1
Format : AC-3
Format/Info : Audio Coding 3
Mode extension : CM (complete main)
Codec ID : 2000
Duration : 1h 27mn
Bit rate mode : Constant
Bit rate : 448 Kbps
Channel(s) : 6 channels
Channel positions : Front: L C R, Side: L R, LFE
Sampling rate : 48.0 KHz
Bit depth : 16 bits
Stream size : 281 MiB (17%)
Alignment : Split accross interleaves
Interleave, duration : 40 ms (1.00 video frame)
Interleave, preload duration : 500 ms






Emily Hampshire ... Lisa
Elias Koteas ... Mark Murdock
John Pyper-Ferguson ... Jacob
Caterina Murino ... Sofia Valenti
Patricia McKenzie ... Diane Robinson
Karl Pruner ... Zach Emmett
Katie Boland ... Melody Chambers
Fabio Fulco ... Robert Moretti
Simone-Elise Girard ... Claire
Peter Miller ... Tom (voice)




Six people, each of them is on the road to self-destruction. They wake up in cells in a surreal facility,
without knowing how they got there or why. Are they in denial? Are they crazy? What happened?
As they try to figure things out, a mysterious man forces the six abductees to participate in
a disturbing experiment called the Trials. During the experiment, the unwilling participants will
come to face disturbing truths about themselves and decide each others and fate in a game of dice.
As the storyline unfolds, we discover that something greater connects them all.